<?xml version="1.0" encoding="UTF-8"?><svg id="a" xmlns="http://www.w3.org/2000/svg" viewBox="0 0 190.74 337.35"><defs><style>.b{isolation:isolate;}.c{fill:#e07a5f;}</style></defs><g class="b"><path class="c" d="M163.64,258.12c5.33,5.29,10.77,10.46,16.01,15.83,.85,.87,.88,2.56,1.28,3.87-1.36,.02-2.79,.3-4.06-.03-1.26-.33-2.45-1.16-3.53-1.96-4.59-3.4-9.8-4.51-15.36-4.09-16.75,1.27-30.71,9.24-44.86,18.6,10.24,5.26,18.9,12.68,30.16,13.74,7.57,.71,15.31-.02,22.95-.43,6.26-.33,12.05-2.25,17.07-6.26,1.02-.81,2.6-.93,3.92-1.36-.02,1.49,.49,3.28-.15,4.42-7.1,12.61-15.99,23.73-28.4,31.49-11.51,7.2-23.33,7.17-34.98,.07-9.22-5.62-15.76-13.85-21.38-22.84-.7-1.11-.3-2.91-.41-4.39,1.36,.82,3.04,1.36,4.01,2.5,4.37,5.14,8.14,10.85,12.88,15.6,6.79,6.82,15.01,11.27,25.11,9.89,16.71-2.29,25.45-15,34.7-27.09h0l-4.27,.8c-18.73,3.53-37.1,4.48-53.85-7.13-2.58-1.79-5.55-3.01-8.23-4.68-2.76-1.73-5.35-1.98-8.51-.78-2.89,1.1-6.14,1.75-9.21,1.68-1.61-.04-4.12-1.79-4.49-3.23-.39-1.5,.89-4.71,2.12-5.12,3.09-1.02,6.94-1.95,9.81-.97,5.09,1.75,8.9,.43,13.01-2.18,10.19-6.45,20.59-12.6,32.66-14.83,5.92-1.1,11.97-1.55,18.22-2.33-2.65-2.91-5.48-5.61-7.79-8.7-2.45-3.29-5.54-4.47-9.47-5.08-3.62-.57-7.33-1.83-10.5-3.66-3.69-2.12-4.18-5.99-1.98-8.91,2.26-3,6.46-3.55,9.56-.92,2.86,2.43,5.28,5.37,8.16,7.76,1.33,1.1,3.52,2.24,4.98,1.9,6.11-1.42,12.27-2.99,18.09-5.29,6.45-2.55,9.85-7.71,9.61-14.88-.16-4.81-.2-9.64-.66-14.42-1.84-19.31-3.7-38.61-5.78-57.9-2.28-21.22-4.27-42.49-7.37-63.59-2.65-18.07-7.87-35.52-17.34-51.43C138.99,14.26,108.72,.16,78.33,5.56c-21.78,3.87-37.13,18.78-55.41,30.96h0c2.94,2.63,5.42,4.75,7.79,6.99,11.49,10.87,23.15,21.48,37.74,28.24,13.88,6.43,27.41,6.51,40.1-2.66,4.34-3.13,7.89-7.34,11.93-10.91,.95-.83,2.44-1.05,3.68-1.55-.2,1.44-.02,3.1-.69,4.27-.95,1.66-2.52,2.96-3.85,4.4-13.11,14.17-30.63,18.78-48.02,12.21-21.19-8-36.66-23.71-52.13-39.35-1.92-1.94-43.37-43.41,.85-5.09,9.29-6.39,18.35-13.12,27.72-19.38C66.01,1.7,85.74-2.84,106.96,1.77c27.69,6.03,46.15,23.58,57.69,48.77,9.57,20.88,13.56,43.31,16.04,65.92,2.62,23.92,4.43,47.93,6.57,71.9,1.22,13.63,2.7,27.24,3.45,40.9,.43,7.74-2.85,14.28-10.28,17.6-6.37,2.85-13.04,5.01-19.91,7.6,.86,1.01,1.89,2.44,3.13,3.66Zm-20.38-14.93c-.77-.58-2.33-.12-3.53-.14h0c.35,1.12,.37,2.81,1.12,3.25,2.09,1.22,4.48,1.93,6.75,2.84l.55-.98c-1.61-1.69-3.06-3.58-4.9-4.97Z"/></g></svg>